<svg xmlns="http://www.w3.org/2000/svg" width="84" height="84" viewBox="0 0 84 84">
  <g id="Group_667" data-name="Group 667" transform="translate(-10385 3636)">
    <rect id="Rectangle_531" data-name="Rectangle 531" width="84" height="84" transform="translate(10385 -3636)" fill="none"/>
    <g id="Headphones-595b40b65ba036ed117d142d" transform="translate(10396 -3625)">
      <path id="Path_363" data-name="Path 363" d="M54.25,31.246V28.281A22.281,22.281,0,0,0,31.969,6H30.031A22.281,22.281,0,0,0,7.75,28.281v2.964A8.719,8.719,0,0,0,0,39.906v5.812a8.719,8.719,0,0,0,8.719,8.719H9.862a2.906,2.906,0,0,0,5.638-.969V32.156a2.906,2.906,0,0,0-5.638-.969H9.688V28.281a20.225,20.225,0,0,1,4.338-12.514l4.381,4.308A3.875,3.875,0,0,0,21.128,21.2a3.8,3.8,0,0,0,2.432-.882,11.625,11.625,0,0,1,14.851,0,3.875,3.875,0,0,0,5.183-.271l4.35-4.359a20.228,20.228,0,0,1,4.369,12.594v2.906h-.174a2.906,2.906,0,0,0-5.638.969V53.469a2.906,2.906,0,0,0,5.638.969h1.143A8.719,8.719,0,0,0,62,45.719V39.906a8.719,8.719,0,0,0-7.75-8.661ZM1.938,45.719V39.906a6.781,6.781,0,0,1,6.781-6.781h.969V52.5H8.719A6.781,6.781,0,0,1,1.938,45.719ZM12.594,31.188a.969.969,0,0,1,.969.969V53.469a.969.969,0,0,1-1.937,0V32.156A.969.969,0,0,1,12.594,31.188ZM42.208,18.662a1.938,1.938,0,0,1-2.558.136,13.562,13.562,0,0,0-17.321,0,1.937,1.937,0,0,1-2.558-.136L15.3,14.273A20.266,20.266,0,0,1,30.031,7.938h1.937a20.264,20.264,0,0,1,14.7,6.323Zm7.2,35.776a.969.969,0,0,1-.969-.969V32.156a.969.969,0,0,1,1.938,0V53.469A.969.969,0,0,1,49.406,54.438Zm10.656-8.719A6.781,6.781,0,0,1,53.281,52.5h-.969V33.125h.969a6.781,6.781,0,0,1,6.781,6.781Z"/>
    </g>
  </g>
</svg>
