<svg xmlns="http://www.w3.org/2000/svg" width="84" height="84" viewBox="0 0 84 84">
  <g id="Group_665" data-name="Group 665" transform="translate(-10683 3676)">
    <g id="Group_473" data-name="Group 473" transform="translate(9975 -4122)">
      <g id="Open_Book-595b40b65ba036ed117d154c" data-name="Open Book-595b40b65ba036ed117d154c" transform="translate(717 456)">
        <g id="Group_471" data-name="Group 471">
          <path id="Path_385" data-name="Path 385" d="M61,8H59.816A3,3,0,0,0,57,6H37a4.982,4.982,0,0,0-4,2.031A4.982,4.982,0,0,0,29,6H9A3,3,0,0,0,6.184,8H5a3,3,0,0,0-3,3V51a3,3,0,0,0,3,3H26.22a1.276,1.276,0,0,1,1.242.97A3.993,3.993,0,0,0,31.342,58h3.315a3.994,3.994,0,0,0,3.881-3.031A1.278,1.278,0,0,1,39.78,54H61a3,3,0,0,0,3-3V11A3,3,0,0,0,61,8ZM9,8H29a3,3,0,0,1,3,3V37a1,1,0,0,0,2,0V11a3,3,0,0,1,3-3H57a1,1,0,0,1,1,1V47a1,1,0,0,1-1,1H37a4.982,4.982,0,0,0-4,2.031A4.982,4.982,0,0,0,29,48H9a1,1,0,0,1-1-1V9A1,1,0,0,1,9,8ZM62,51a1,1,0,0,1-1,1H39.78A3.276,3.276,0,0,0,36.6,54.485,2,2,0,0,1,34.658,56H31.343a2,2,0,0,1-1.94-1.516A3.276,3.276,0,0,0,26.22,52H5a1,1,0,0,1-1-1V11a1,1,0,0,1,1-1H6V47a3,3,0,0,0,3,3H29a3,3,0,0,1,3,3,1,1,0,0,0,2,0,3,3,0,0,1,3-3H57a3,3,0,0,0,3-3V10h1a1,1,0,0,1,1,1Z"/>
          <path id="Path_386" data-name="Path 386" d="M33,46a1,1,0,0,0,1-1V41a1,1,0,0,0-2,0v4A1,1,0,0,0,33,46Z"/>
        </g>
      </g>
      <line id="Line_115" data-name="Line 115" x2="16" transform="translate(728.5 476.5)" fill="none" stroke="#000" stroke-linecap="round" stroke-width="2"/>
      <line id="Line_121" data-name="Line 121" x2="16" transform="translate(756.5 476.5)" fill="none" stroke="#000" stroke-linecap="round" stroke-width="2"/>
      <line id="Line_123" data-name="Line 123" x2="16" transform="translate(756.5 484.5)" fill="none" stroke="#000" stroke-linecap="round" stroke-width="2"/>
      <line id="Line_118" data-name="Line 118" x2="16" transform="translate(728.5 488.5)" fill="none" stroke="#000" stroke-linecap="round" stroke-width="2"/>
      <line id="Line_116" data-name="Line 116" x2="16" transform="translate(728.5 480.5)" fill="none" stroke="#000" stroke-linecap="round" stroke-width="2"/>
      <line id="Line_120" data-name="Line 120" x2="16" transform="translate(756.5 480.5)" fill="none" stroke="#000" stroke-linecap="round" stroke-width="2"/>
      <line id="Line_122" data-name="Line 122" x2="9" transform="translate(756.5 488.5)" fill="none" stroke="#000" stroke-linecap="round" stroke-width="2"/>
      <line id="Line_119" data-name="Line 119" x2="16" transform="translate(728.5 492.5)" fill="none" stroke="#000" stroke-linecap="round" stroke-width="2"/>
      <line id="Line_117" data-name="Line 117" x2="9" transform="translate(728.5 484.5)" fill="none" stroke="#000" stroke-linecap="round" stroke-width="2"/>
    </g>
    <rect id="Rectangle_533" data-name="Rectangle 533" width="84" height="84" transform="translate(10683 -3676)" fill="none"/>
  </g>
</svg>
