<svg xmlns="http://www.w3.org/2000/svg" width="84" height="84" viewBox="0 0 84 84">
  <g id="Group_664" data-name="Group 664" transform="translate(-10519 3682)">
    <g id="Microphone-595b40b65ba036ed117d14dc" transform="translate(10529 -3671)">
      <path id="Path_372" data-name="Path 372" d="M51,22H46V14a14,14,0,1,0-28,0v8H13a2,2,0,0,0-2,2v2a2,2,0,0,0,2,2h1v2A18,18,0,0,0,28,47.54V52H25.66a5,5,0,0,0-3.54,1.46L19.59,56H15a3,3,0,0,0,0,6H49a3,3,0,1,0,0-6H44.41l-2.54-2.54A5,5,0,0,0,38.34,52H36V47.54A18,18,0,0,0,50,30V28h1a2,2,0,0,0,2-2V24A2,2,0,0,0,51,22ZM20,20h7a1,1,0,0,0,0-2H20V16h7a1,1,0,0,0,0-2H20a12,12,0,0,1,.18-2H27a1,1,0,0,0,0-2H20.7a12,12,0,0,1,22.6,0H37a1,1,0,0,0,0,2h6.82A12,12,0,0,1,44,14H37a1,1,0,0,0,0,2h7v2H37a1,1,0,0,0,0,2h7V30a12,12,0,0,1-24,0Zm-7,4h5v2H13ZM49,58a1,1,0,0,1,0,2H15a1,1,0,0,1,0-2Zm-8.54-3.12L41.59,56H22.41l1.12-1.12A3,3,0,0,1,25.66,54H38.34a3,3,0,0,1,2.12.88ZM34,52H30V47.88a17,17,0,0,0,4,0ZM48,30a16,16,0,0,1-32,0V28h2v2a14,14,0,0,0,28,0V28h2Zm3-4H46V24h5Z"/>
    </g>
    <rect id="Rectangle_532" data-name="Rectangle 532" width="84" height="84" transform="translate(10519 -3682)" fill="none"/>
  </g>
</svg>
