<svg xmlns="http://www.w3.org/2000/svg" width="84" height="84" viewBox="0 0 84 84">
  <g id="Group_668" data-name="Group 668" transform="translate(-10789 3742)">
    <g id="Hand_With_Pen-595b40b65ba036ed117d1425" data-name="Hand With Pen-595b40b65ba036ed117d1425" transform="translate(10800.414 -3732.045)">
      <path id="Path_193" data-name="Path 193" d="M34.736,17.55l-25.3,25.3-.231-.25Z" transform="translate(-0.361 -0.431)"/>
      <path id="Path_194" data-name="Path 194" d="M60.623,33.207a2.888,2.888,0,0,0-2.195-.751l-2.618.212a18.288,18.288,0,0,1-11.9-3.167l-4.129-2.888,7.7-7.7a2.888,2.888,0,0,0,.626-3.282L51,12.744A3.852,3.852,0,0,0,45.55,7.3l-2.888,2.888a2.888,2.888,0,0,0-3.282.558l-.443.443a6.68,6.68,0,0,0-7.113,1.559L23.99,20.579A.963.963,0,1,0,25.3,21.888l7.835-7.835A4.813,4.813,0,0,1,37.4,12.744l-10.2,10.2-6.3.385A10.588,10.588,0,0,0,12.9,27.788L6.27,37.182a5.111,5.111,0,0,0,.452,6.439,19.761,19.761,0,0,0-3.08,5.448l-2.56,6.8-1.213,1.2a.966.966,0,1,0,1.367,1.367l1.213-1.213,6.786-2.551a20.155,20.155,0,0,0,7.2-4.63L19.7,46.779a5.043,5.043,0,0,0,.732.433l8.951,4.245A20.377,20.377,0,0,0,40.045,53.3L58.987,51.38a2.888,2.888,0,0,0,2.6-2.888V35.334a2.888,2.888,0,0,0-.963-2.127ZM46.83,8.749a1.926,1.926,0,1,1,2.724,2.724L46.83,14.188l-2.724-2.724Zm-5.457,3.119a.963.963,0,0,1,.674.289L44.934,15l1.251,1.251a.963.963,0,0,1,0,1.309l-4.813,4.813-5.438-5.438,4.813-4.813A.962.962,0,0,1,41.373,11.868ZM7.839,38.3,14.422,28.9a8.663,8.663,0,0,1,6.545-3.658l4.129-.26L8.262,41.87c-.1.1-.193.193-.279.3A3.2,3.2,0,0,1,7.839,38.3Zm.722,14.573L3.555,54.8l1.877-5.005a17.922,17.922,0,0,1,2.83-5.024c.164-.212.337-.414.52-.616l5.361,5.361a18.018,18.018,0,0,1-5.583,3.359Zm6.94-4.63L10.062,42.8l17.99-17.99,2.05-2.05,4.533-4.5L40.074,23.7l-2.349,2.349-.058.067L25.819,37.933l-2.031-.164a5.775,5.775,0,0,0-5,2.05,4.813,4.813,0,0,0-.963,4.12,4.553,4.553,0,0,0,.6,1.463Zm44.16.3a.963.963,0,0,1-.866.963l-1.059.106a.963.963,0,0,0-.963-.963H54.848a.963.963,0,0,0-.886,1.338L39.852,51.389a18.346,18.346,0,0,1-9.625-1.675l-8.98-4.245a.8.8,0,0,1-.154-.087,2.8,2.8,0,0,1-1.28-1.444,2.474,2.474,0,0,1-.144-.452,2.888,2.888,0,0,1,.6-2.474,3.85,3.85,0,0,1,3.34-1.319h.443l2.483.241,7.142.722A10.588,10.588,0,0,0,39.611,39.5l2.214-1.155a.963.963,0,1,0-.886-1.7L38.707,37.77a8.663,8.663,0,0,1-4.813.963l-5.544-.549L38.428,28.048l4.428,3.042a20.213,20.213,0,0,0,11.194,3.561.942.942,0,0,0,.8,1.473h1.925a.963.963,0,0,0,.664-1.656l1.184-.1a.957.957,0,0,1,1.04.963Z" transform="translate(0 -0.005)"/>
      <path id="Path_195" data-name="Path 195" d="M58.888,45.29H56.963a.963.963,0,0,0,0,1.925h1.925a.963.963,0,1,0,0-1.925Z" transform="translate(-2.114 -1.471)"/>
      <path id="Path_196" data-name="Path 196" d="M58.888,40.29H56.963a.963.963,0,0,0,0,1.925h1.925a.963.963,0,0,0,0-1.925Z" transform="translate(-2.114 -1.283)"/>
    </g>
    <rect id="Rectangle_534" data-name="Rectangle 534" width="84" height="84" transform="translate(10789 -3742)" fill="none"/>
  </g>
</svg>
